<?xml version="1.0" encoding="utf-8"?>
<!-- Generator: Adobe Illustrator 19.1.0, SVG Export Plug-In . SVG Version: 6.00 Build 0)  -->
<svg version="1.1" id="Calque_1" xmlns="http://www.w3.org/2000/svg" xmlns:xlink="http://www.w3.org/1999/xlink" x="0px" y="0px"
	 viewBox="0 0 800 600" style="enable-background:new 0 0 800 600;" xml:space="preserve">
<style type="text/css">
	.st0{fill:none;}
	.st1{fill:#00A2FF;}
	.st2{fill:#FFFFFF;}
</style>
<path class="st0" d="M231.3,506.4l157.9-396.8c0,0,17.4-27.3,52.1-30.5c0,0,26.4-3.4,36.3-2.1l20.6-0.3c0,0,28-2,31-3.4
	c0,0,23.8-4.1,37.9-19.2c0,0,8-6.8,10.8-12.9l9.9,26.5c0,0-12.9,19.1-28.4,25.1c0,0-19.6,10-55.4,10.3c0,0-36.1-0.2-33.4,1.2
	L510,115c0,0,25.1,7.9,44.4,6.9c0,0,15.5,0.5,33.4-9.3l10-7.2l1.4,28.4c0,0-19.8,18.1-50.6,16.2c0,0-16.5-0.2-57.5-12.7
	c0,0-43.2-15.8-70.2-5.5c0,0-14.2,4.8-20.4,10.6l144.6,364.2c0,0-49.2,29.3-103.7,38.2c0,0-63.7,11.3-117-2.3
	C324.4,542.7,285.8,538.5,231.3,506.4z"/>
<ellipse class="st0" cx="284.8" cy="475" rx="11.7" ry="11.7"/>
<ellipse class="st0" cx="366.1" cy="475" rx="11.7" ry="11.7"/>
<ellipse class="st0" cx="442.5" cy="505" rx="11.7" ry="11.7"/>
<ellipse class="st0" cx="488.5" cy="459.8" rx="11.7" ry="11.7"/>
<ellipse class="st0" cx="431" cy="424.5" rx="11.7" ry="11.7"/>
<ellipse class="st0" cx="338.6" cy="412.9" rx="11.7" ry="11.7"/>
<ellipse class="st0" cx="395.5" cy="377" rx="11.7" ry="11.7"/>
<ellipse class="st0" cx="442.3" cy="334.5" rx="11.7" ry="11.7"/>
<ellipse class="st0" cx="350.5" cy="322.9" rx="11.7" ry="11.7"/>
<ellipse class="st0" cx="404.3" cy="280.8" rx="11.7" ry="11.7"/>
<ellipse class="st0" cx="386" cy="221.3" rx="11.7" ry="11.7"/>
<path class="st1" d="M228.6,487.4L386.5,90.6c0,0,17.4-27.3,52.1-30.5c0,0,26.4-3.4,36.3-2.1l20.6-0.3c0,0,28-2,31-3.4
	c0,0,23.8-4.1,37.9-19.2c0,0,8-6.8,10.8-12.9l9.9,26.5c0,0-12.9,19.1-28.4,25.1c0,0-19.6,10-55.4,10.3c0,0-36.1-0.2-33.4,1.2
	L507.4,96c0,0,25.1,7.9,44.4,6.9c0,0,15.5,0.5,33.4-9.3l10-7.2l1.4,28.4c0,0-19.8,18.1-50.6,16.2c0,0-16.5-0.2-57.5-12.7
	c0,0-43.2-15.8-70.2-5.5c0,0-14.2,4.8-20.4,10.6l144.6,364.2c0,0-49.2,29.3-103.7,38.2c0,0-63.7,11.3-117-2.3
	C321.8,523.6,283.1,519.5,228.6,487.4z"/>
<ellipse class="st2" cx="282.1" cy="456" rx="11.7" ry="11.7"/>
<ellipse class="st2" cx="363.4" cy="456" rx="11.7" ry="11.7"/>
<ellipse class="st2" cx="439.9" cy="486" rx="11.7" ry="11.7"/>
<ellipse class="st2" cx="485.8" cy="440.8" rx="11.7" ry="11.7"/>
<ellipse class="st2" cx="428.3" cy="405.5" rx="11.7" ry="11.7"/>
<ellipse class="st2" cx="335.9" cy="393.9" rx="11.7" ry="11.7"/>
<ellipse class="st2" cx="392.8" cy="358" rx="11.7" ry="11.7"/>
<ellipse class="st2" cx="439.7" cy="315.5" rx="11.7" ry="11.7"/>
<ellipse class="st2" cx="347.8" cy="303.9" rx="11.7" ry="11.7"/>
<ellipse class="st2" cx="401.6" cy="261.8" rx="11.7" ry="11.7"/>
<ellipse class="st2" cx="383.3" cy="202.3" rx="11.7" ry="11.7"/>
</svg>
